<svg id="Calque_1" data-name="Calque 1" xmlns="http://www.w3.org/2000/svg" xmlns:xlink="http://www.w3.org/1999/xlink" viewBox="0 0 32 32"><defs><style>.cls-1{stroke-miterlimit:10;stroke-width:0.1px;fill:url(#Dégradé_sans_nom_42);stroke:url(#Dégradé_sans_nom_45);}</style><linearGradient id="Dégradé_sans_nom_42" x1="2" y1="16" x2="30" y2="16" gradientUnits="userSpaceOnUse"><stop offset="0" stop-color="#4dc1eb"/><stop offset="0.01" stop-color="#4ec0eb"/><stop offset="0.35" stop-color="#6780e7"/><stop offset="0.65" stop-color="#7a52e4"/><stop offset="0.87" stop-color="#8636e3"/><stop offset="1" stop-color="#8a2be2"/></linearGradient><linearGradient id="Dégradé_sans_nom_45" x1="1.95" y1="16" x2="30.05" y2="16" gradientUnits="userSpaceOnUse"><stop offset="0" stop-color="#8a2be2"/><stop offset="0.01" stop-color="#892ce2"/><stop offset="0.35" stop-color="#706ce6"/><stop offset="0.65" stop-color="#5d9ae9"/><stop offset="0.87" stop-color="#51b6ea"/><stop offset="1" stop-color="#4dc1eb"/></linearGradient></defs><path class="cls-1" d="M12.68,4.21v6.16a2.32,2.32,0,0,1-2.31,2.31H4.21C-3.5,11.36,11.36-3.5,12.68,4.21ZM10.37,19.32H4.21c-7.71,1.32,7.15,16.18,8.47,8.47V21.63A2.32,2.32,0,0,0,10.37,19.32Zm17.42,0H21.63a2.32,2.32,0,0,0-2.31,2.31v6.16C20.64,35.5,35.5,20.64,27.79,19.32Zm-6.16-6.64h6.16c7.71-1.32-7.15-16.18-8.47-8.47v6.16A2.32,2.32,0,0,0,21.63,12.68Zm-2.31,6.49a4.64,4.64,0,0,0,0-6.34v-.15h-.15a4.64,4.64,0,0,0-6.34,0h-.15v.15a4.64,4.64,0,0,0,0,6.34c.05,0,.1.11.15.15a4.64,4.64,0,0,0,6.34,0h.15Z"/></svg>